<?xml version="1.0" ?><!DOCTYPE svg  PUBLIC '-//W3C//DTD SVG 1.1//EN'  'http://www.w3.org/Graphics/SVG/1.1/DTD/svg11.dtd'><svg height="512px" style="enable-background:new 0 0 512 512;" version="1.1" viewBox="0 0 512 512" width="512px" xml:space="preserve" xmlns="http://www.w3.org/2000/svg" xmlns:xlink="http://www.w3.org/1999/xlink"><g id="C_-_13_x2C__savings_x2C__Care_x2C__coin_x2C__economy_x2C__finance_x2C__guardar_x2C__money_x2C__save"><g><path d="M254.646,112.167c-1.023,0.363-1.833,0.963-2.427,1.799c-0.602,0.838-0.901,1.759-0.901,2.769    c0,0.921,0.273,1.775,0.817,2.572c0.545,0.787,1.387,1.429,2.51,1.905V112.167z"/><path d="M337.756,179.577c5.031,5.274,12.854,9.68,22.387,12.895c0.256,0.086,0.513,0.171,0.771,0.255    c0.42,0.138,0.842,0.274,1.268,0.406c0.719,0.224,1.441,0.443,2.178,0.653c0.029,0.008,0.059,0.017,0.086,0.025    c0.856,0.244,1.726,0.476,2.604,0.701c0.137,0.036,0.274,0.068,0.41,0.104c0.823,0.208,1.653,0.408,2.494,0.6    c0.06,0.013,0.118,0.027,0.178,0.041c1.879,0.424,3.805,0.809,5.771,1.151c0.072,0.012,0.145,0.024,0.215,0.037    c0.953,0.164,1.915,0.319,2.885,0.461c0.027,0.004,0.053,0.008,0.078,0.012c1.023,0.151,2.055,0.29,3.097,0.417    c0.002,0.001,0.003,0.001,0.007,0.001c0.954,0.116,1.918,0.22,2.888,0.316c0.192,0.02,0.384,0.039,0.575,0.057    c0.894,0.085,1.791,0.162,2.695,0.23c0.105,0.007,0.21,0.018,0.314,0.024c0.99,0.072,1.987,0.131,2.989,0.182    c0.226,0.012,0.451,0.02,0.677,0.03c0.783,0.036,1.572,0.064,2.362,0.086c0.277,0.007,0.554,0.015,0.832,0.022    c0.999,0.022,2.001,0.037,3.009,0.037s2.01-0.015,3.01-0.037c0.276-0.007,0.555-0.015,0.832-0.022    c0.79-0.022,1.576-0.05,2.359-0.086c0.227-0.01,0.453-0.018,0.68-0.03c1-0.051,1.997-0.11,2.985-0.182    c0.108-0.008,0.217-0.017,0.325-0.025c0.898-0.068,1.791-0.144,2.678-0.228c0.198-0.019,0.396-0.038,0.596-0.059    c0.956-0.095,1.908-0.197,2.85-0.313c0.014,0,0.028-0.002,0.043-0.004c1.033-0.126,2.06-0.265,3.076-0.415    c0.038-0.005,0.077-0.012,0.117-0.018c0.953-0.142,1.9-0.293,2.838-0.455c0.082-0.014,0.166-0.028,0.249-0.042    c1.958-0.341,3.875-0.724,5.746-1.146c0.069-0.016,0.138-0.032,0.207-0.048c0.831-0.188,1.651-0.387,2.462-0.592    c0.144-0.036,0.287-0.071,0.428-0.108c0.877-0.224,1.742-0.457,2.596-0.698c0.037-0.011,0.072-0.022,0.109-0.033    c0.73-0.209,1.448-0.427,2.161-0.647c0.42-0.131,0.837-0.266,1.251-0.401c0.27-0.088,0.535-0.177,0.801-0.266    c9.528-3.215,17.348-7.619,22.381-12.891c0.163-0.17,0.348-0.312,0.532-0.454c3.21-3.559,5.005-7.428,5.005-11.452    c0-2.801-0.893-5.582-2.66-8.307c-6.161,5.047-14.357,9.199-23.894,12.245c-0.165,0.053-0.331,0.105-0.497,0.158    c-0.908,0.285-1.824,0.563-2.758,0.828c-0.24,0.069-0.49,0.134-0.733,0.201c-0.647,0.179-1.3,0.354-1.958,0.523    c-0.422,0.109-0.845,0.218-1.271,0.323c-0.709,0.174-1.424,0.341-2.145,0.504c-0.593,0.134-1.191,0.261-1.791,0.387    c-0.372,0.079-0.745,0.154-1.121,0.229c-1.027,0.206-2.066,0.399-3.116,0.582c-0.276,0.048-0.55,0.099-0.827,0.146    c-0.611,0.103-1.228,0.2-1.846,0.294c-0.365,0.056-0.733,0.109-1.101,0.162c-0.937,0.135-1.878,0.261-2.829,0.377    c-0.473,0.059-0.946,0.116-1.424,0.17c-0.537,0.061-1.078,0.119-1.621,0.174c-0.885,0.089-1.774,0.172-2.67,0.246    c-0.403,0.033-0.81,0.059-1.215,0.089c-0.764,0.056-1.531,0.106-2.302,0.15c-0.335,0.019-0.669,0.04-1.005,0.058    c-1.066,0.053-2.137,0.094-3.213,0.125c-0.279,0.007-0.561,0.014-0.84,0.021c-1.154,0.026-2.314,0.045-3.48,0.045    s-2.326-0.019-3.482-0.045c-0.279-0.006-0.558-0.013-0.836-0.021c-1.077-0.031-2.149-0.072-3.216-0.125    c-0.334-0.018-0.665-0.039-0.999-0.058c-0.775-0.044-1.549-0.095-2.318-0.151c-0.4-0.029-0.802-0.056-1.199-0.088    c-0.9-0.073-1.795-0.157-2.687-0.247c-0.534-0.053-1.065-0.112-1.597-0.171c-0.492-0.055-0.979-0.114-1.467-0.175    c-0.932-0.114-1.854-0.238-2.77-0.37c-0.381-0.055-0.764-0.11-1.144-0.167c-0.61-0.093-1.22-0.189-1.822-0.29    c-0.316-0.053-0.629-0.111-0.943-0.166c-1.007-0.177-2.003-0.363-2.989-0.56c-0.389-0.078-0.777-0.157-1.163-0.239    c-0.558-0.117-1.115-0.234-1.666-0.357c-0.759-0.171-1.509-0.348-2.255-0.531c-0.423-0.104-0.842-0.211-1.259-0.319    c-0.661-0.17-1.315-0.345-1.964-0.524c-0.245-0.068-0.494-0.132-0.736-0.202c-0.928-0.264-1.84-0.541-2.744-0.824    c-0.174-0.055-0.348-0.109-0.52-0.165c-9.531-3.045-17.721-7.197-23.879-12.244c-1.77,2.724-2.664,5.506-2.664,8.31    c0,4.01,1.783,7.868,4.974,11.417C337.381,179.238,337.58,179.394,337.756,179.577z"/><path d="M337.756,149.293c5.009,5.25,12.787,9.64,22.267,12.85c0.343,0.115,0.688,0.23,1.036,0.343    c0.348,0.113,0.695,0.226,1.049,0.336c1.625,0.506,3.297,0.982,5.016,1.421c0.076,0.02,0.153,0.039,0.23,0.058    c0.891,0.226,1.793,0.444,2.707,0.652c0.004,0.001,0.009,0.001,0.014,0.002c1.912,0.433,3.873,0.824,5.875,1.171    c0.035,0.006,0.07,0.012,0.105,0.018c2.93,0.505,5.948,0.913,9.039,1.221c0.176,0.018,0.354,0.035,0.531,0.052    c0.914,0.087,1.833,0.166,2.759,0.235c0.087,0.006,0.173,0.014,0.261,0.02c0.995,0.072,1.998,0.133,3.006,0.183    c0.221,0.011,0.443,0.019,0.664,0.029c0.787,0.036,1.576,0.064,2.371,0.086c0.276,0.008,0.553,0.016,0.83,0.022    c1,0.022,2.002,0.037,3.01,0.037c1.009,0,2.011-0.015,3.01-0.037c0.277-0.006,0.554-0.015,0.831-0.022    c0.791-0.022,1.579-0.05,2.362-0.086c0.226-0.01,0.451-0.019,0.676-0.03c1.004-0.05,2.004-0.11,2.996-0.181    c0.097-0.007,0.191-0.017,0.287-0.023c0.914-0.069,1.822-0.146,2.727-0.232c0.186-0.018,0.371-0.036,0.558-0.054    c2.036-0.203,4.044-0.447,6.013-0.737c0.011-0.002,0.021-0.004,0.031-0.006c0.995-0.146,1.979-0.304,2.953-0.472    c0.051-0.009,0.102-0.017,0.151-0.025c1.99-0.346,3.939-0.734,5.841-1.164c0.02-0.005,0.038-0.009,0.057-0.014    c0.897-0.203,1.781-0.417,2.656-0.639c0.09-0.023,0.18-0.045,0.268-0.068c1.714-0.438,3.381-0.913,5.001-1.417    c0.351-0.109,0.697-0.222,1.043-0.334c0.354-0.115,0.706-0.232,1.056-0.35c9.477-3.209,17.253-7.599,22.264-12.846    c0.161-0.168,0.344-0.308,0.525-0.45c3.215-3.559,5.012-7.43,5.012-11.455c0-2.801-0.893-5.582-2.66-8.307    c-6.175,5.058-14.393,9.217-23.955,12.265c-0.121,0.039-0.244,0.077-0.367,0.116c-0.942,0.296-1.895,0.585-2.862,0.86    c-0.184,0.052-0.372,0.101-0.558,0.153c-0.711,0.198-1.43,0.39-2.154,0.576c-0.391,0.101-0.781,0.2-1.176,0.297    c-0.785,0.193-1.576,0.38-2.376,0.56c-0.509,0.113-1.024,0.221-1.538,0.329c-0.41,0.086-0.822,0.171-1.236,0.254    c-0.937,0.187-1.883,0.363-2.838,0.531c-0.357,0.063-0.715,0.128-1.074,0.189c-0.596,0.1-1.195,0.194-1.797,0.286    c-0.391,0.06-0.784,0.116-1.178,0.173c-0.907,0.13-1.819,0.253-2.741,0.365c-0.488,0.061-0.979,0.12-1.472,0.176    c-0.531,0.06-1.064,0.118-1.602,0.172c-0.891,0.09-1.784,0.173-2.684,0.247c-0.397,0.033-0.799,0.059-1.197,0.088    c-0.77,0.056-1.541,0.106-2.314,0.151c-0.336,0.019-0.668,0.04-1.004,0.058c-1.066,0.053-2.139,0.094-3.217,0.125    c-0.277,0.007-0.555,0.014-0.832,0.021c-1.156,0.026-2.316,0.044-3.484,0.044s-2.329-0.018-3.485-0.044    c-0.277-0.006-0.554-0.013-0.83-0.021c-1.077-0.031-2.151-0.072-3.218-0.125c-0.334-0.018-0.666-0.039-0.998-0.058    c-0.779-0.045-1.557-0.095-2.328-0.152c-0.396-0.028-0.793-0.055-1.187-0.087c-0.903-0.074-1.802-0.158-2.696-0.248    c-0.53-0.054-1.058-0.111-1.584-0.17c-0.503-0.057-1.002-0.117-1.502-0.179c-0.907-0.112-1.807-0.232-2.701-0.36    c-0.402-0.059-0.805-0.116-1.205-0.178c-0.598-0.091-1.192-0.185-1.783-0.284c-0.385-0.065-0.766-0.134-1.148-0.201    c-0.926-0.164-1.846-0.336-2.755-0.517c-0.423-0.084-0.843-0.17-1.262-0.259c-0.51-0.107-1.021-0.213-1.524-0.327    c-0.801-0.18-1.594-0.367-2.382-0.56c-0.393-0.097-0.782-0.197-1.171-0.297c-0.72-0.185-1.434-0.375-2.141-0.572    c-0.191-0.053-0.387-0.104-0.578-0.158c-0.961-0.273-1.904-0.559-2.839-0.853c-0.135-0.043-0.269-0.085-0.403-0.128    c-9.554-3.046-17.764-7.205-23.934-12.261c-1.77,2.724-2.664,5.506-2.664,8.31c0,4.012,1.786,7.87,4.98,11.42    C337.386,148.959,337.582,149.111,337.756,149.293z"/><path d="M398.525,258.884c35.947,0,66.316-14.036,66.316-30.65c0-2.796-0.893-5.577-2.662-8.303    c-6.146,5.035-14.313,9.179-23.814,12.222c-0.22,0.071-0.44,0.141-0.662,0.21c-0.825,0.258-1.657,0.511-2.501,0.752    c-0.358,0.103-0.722,0.2-1.083,0.299c-0.562,0.155-1.126,0.307-1.696,0.454c-0.468,0.121-0.938,0.242-1.412,0.358    c-0.501,0.123-1.007,0.239-1.513,0.356c-0.809,0.188-1.625,0.367-2.449,0.54c-0.318,0.066-0.637,0.132-0.957,0.196    c-1.154,0.232-2.324,0.45-3.508,0.653c-0.162,0.028-0.32,0.058-0.482,0.084c-0.635,0.107-1.275,0.208-1.918,0.306    c-0.324,0.049-0.648,0.096-0.973,0.143c-0.985,0.143-1.979,0.275-2.979,0.398c-0.446,0.055-0.892,0.11-1.34,0.16    c-0.549,0.062-1.1,0.122-1.654,0.178c-0.878,0.088-1.761,0.17-2.648,0.243c-0.411,0.033-0.825,0.062-1.238,0.092    c-0.755,0.055-1.514,0.104-2.274,0.148c-0.341,0.02-0.682,0.042-1.024,0.059c-1.063,0.053-2.132,0.095-3.206,0.125    c-0.279,0.008-0.559,0.015-0.838,0.021c-1.156,0.027-2.315,0.045-3.482,0.045c-1.166,0-2.326-0.018-3.482-0.045    c-0.279-0.006-0.559-0.013-0.837-0.021c-1.074-0.03-2.144-0.071-3.208-0.125c-0.342-0.017-0.682-0.039-1.022-0.059    c-0.763-0.043-1.524-0.093-2.282-0.149c-0.409-0.029-0.821-0.058-1.229-0.091c-0.891-0.072-1.775-0.155-2.656-0.244    c-0.551-0.055-1.1-0.115-1.646-0.177c-0.455-0.051-0.906-0.106-1.359-0.162c-0.988-0.121-1.97-0.253-2.943-0.394    c-0.336-0.049-0.67-0.096-1.002-0.146c-0.639-0.098-1.272-0.198-1.902-0.304c-0.186-0.031-0.369-0.065-0.553-0.097    c-1.159-0.2-2.305-0.413-3.438-0.64c-0.325-0.066-0.649-0.132-0.973-0.2c-0.814-0.171-1.621-0.349-2.421-0.533    c-0.513-0.118-1.026-0.236-1.532-0.361c-0.475-0.116-0.945-0.237-1.414-0.358c-0.565-0.146-1.125-0.297-1.683-0.45    c-0.374-0.103-0.749-0.204-1.118-0.31c-0.83-0.238-1.648-0.486-2.461-0.739c-0.232-0.073-0.465-0.147-0.696-0.222    c-9.495-3.043-17.653-7.188-23.794-12.22c-1.771,2.725-2.666,5.506-2.666,8.306C332.207,244.848,362.577,258.884,398.525,258.884z    "/><path d="M337.756,209.859c5.031,5.274,12.854,9.68,22.387,12.895c0.256,0.086,0.513,0.171,0.771,0.255    c0.42,0.137,0.842,0.274,1.268,0.407c0.719,0.223,1.441,0.443,2.178,0.652c0.029,0.008,0.059,0.017,0.086,0.025    c0.856,0.244,1.726,0.476,2.604,0.701c0.137,0.036,0.274,0.068,0.41,0.104c0.823,0.208,1.653,0.408,2.494,0.6    c0.06,0.013,0.118,0.027,0.178,0.041c1.879,0.424,3.805,0.809,5.771,1.151c0.072,0.012,0.145,0.024,0.215,0.037    c0.953,0.164,1.915,0.319,2.885,0.461c0.027,0.004,0.053,0.008,0.078,0.012c1.023,0.151,2.055,0.29,3.097,0.417    c0.002,0.001,0.003,0.001,0.007,0.001c0.954,0.116,1.918,0.221,2.888,0.316c0.192,0.02,0.384,0.039,0.575,0.057    c0.894,0.085,1.791,0.162,2.695,0.23c0.105,0.007,0.21,0.017,0.314,0.025c0.99,0.071,1.987,0.131,2.989,0.181    c0.226,0.012,0.451,0.02,0.677,0.03c0.783,0.036,1.572,0.064,2.362,0.086c0.277,0.007,0.554,0.015,0.832,0.022    c0.999,0.022,2.001,0.037,3.009,0.037s2.01-0.015,3.01-0.037c0.276-0.007,0.555-0.015,0.832-0.022    c0.79-0.022,1.576-0.05,2.359-0.086c0.227-0.01,0.453-0.018,0.68-0.03c1-0.05,1.997-0.11,2.985-0.181    c0.108-0.008,0.217-0.018,0.325-0.026c0.898-0.068,1.791-0.144,2.678-0.228c0.198-0.019,0.396-0.038,0.596-0.059    c0.956-0.095,1.908-0.197,2.85-0.313c0.014,0,0.028-0.002,0.043-0.004c1.033-0.126,2.06-0.265,3.076-0.415    c0.038-0.005,0.077-0.012,0.117-0.018c0.953-0.142,1.9-0.293,2.838-0.455c0.082-0.014,0.166-0.028,0.249-0.042    c1.958-0.341,3.875-0.724,5.746-1.146c0.069-0.016,0.138-0.032,0.207-0.048c0.831-0.188,1.651-0.387,2.462-0.592    c0.144-0.036,0.287-0.071,0.428-0.108c0.877-0.224,1.742-0.457,2.596-0.698c0.037-0.011,0.072-0.022,0.109-0.033    c0.73-0.209,1.448-0.427,2.161-0.647c0.42-0.131,0.837-0.266,1.251-0.401c0.27-0.088,0.535-0.177,0.801-0.266    c9.528-3.215,17.348-7.619,22.381-12.891c0.163-0.17,0.348-0.312,0.532-0.454c3.21-3.559,5.005-7.428,5.005-11.452    c0-2.796-0.893-5.577-2.662-8.303c-6.146,5.035-14.313,9.179-23.814,12.222c-0.22,0.071-0.44,0.141-0.662,0.21    c-0.825,0.258-1.657,0.511-2.501,0.752c-0.358,0.103-0.722,0.2-1.083,0.299c-0.562,0.155-1.126,0.307-1.696,0.454    c-0.468,0.121-0.938,0.242-1.412,0.358c-0.501,0.123-1.007,0.239-1.513,0.356c-0.809,0.188-1.625,0.367-2.449,0.54    c-0.318,0.066-0.637,0.132-0.957,0.196c-1.154,0.232-2.324,0.45-3.508,0.653c-0.162,0.027-0.32,0.058-0.482,0.084    c-0.635,0.107-1.275,0.208-1.918,0.306c-0.324,0.049-0.648,0.096-0.973,0.143c-0.985,0.143-1.979,0.275-2.979,0.398    c-0.446,0.055-0.892,0.11-1.34,0.16c-0.549,0.062-1.1,0.122-1.654,0.178c-0.878,0.088-1.761,0.17-2.648,0.243    c-0.411,0.033-0.825,0.062-1.238,0.092c-0.755,0.055-1.514,0.104-2.274,0.148c-0.341,0.019-0.682,0.041-1.024,0.058    c-1.063,0.053-2.132,0.094-3.206,0.125c-0.279,0.008-0.559,0.015-0.838,0.021c-1.156,0.027-2.315,0.045-3.482,0.045    c-1.166,0-2.326-0.018-3.482-0.045c-0.279-0.006-0.559-0.013-0.837-0.021c-1.074-0.03-2.144-0.071-3.208-0.125    c-0.342-0.017-0.682-0.039-1.022-0.058c-0.763-0.044-1.524-0.094-2.282-0.149c-0.409-0.029-0.821-0.058-1.229-0.091    c-0.891-0.072-1.775-0.155-2.656-0.244c-0.551-0.055-1.1-0.115-1.646-0.177c-0.455-0.051-0.906-0.106-1.359-0.162    c-0.988-0.121-1.97-0.253-2.943-0.394c-0.336-0.049-0.67-0.096-1.002-0.146c-0.639-0.098-1.272-0.198-1.902-0.304    c-0.186-0.031-0.369-0.065-0.553-0.097c-1.159-0.2-2.305-0.413-3.438-0.64c-0.325-0.066-0.649-0.132-0.973-0.2    c-0.814-0.171-1.621-0.349-2.421-0.533c-0.513-0.118-1.026-0.236-1.532-0.361c-0.475-0.116-0.945-0.237-1.414-0.358    c-0.565-0.146-1.125-0.297-1.683-0.45c-0.374-0.103-0.749-0.204-1.118-0.31c-0.83-0.238-1.648-0.486-2.461-0.739    c-0.232-0.073-0.465-0.147-0.696-0.222c-9.495-3.044-17.653-7.188-23.794-12.22c-1.771,2.725-2.666,5.506-2.666,8.306    c0,4.01,1.783,7.868,4.974,11.417C337.381,209.52,337.58,209.675,337.756,209.859z"/><path d="M396.651,61.692c-1.032,0.363-1.833,0.961-2.435,1.799c-0.596,0.838-0.893,1.757-0.893,2.769    c0,0.921,0.264,1.774,0.816,2.57c0.545,0.782,1.381,1.431,2.511,1.907V61.692z"/><path d="M403.659,87.662c0.834-0.961,1.247-2.096,1.247-3.41c0-1.159-0.348-2.169-1.049-3.007    c-0.686-0.845-1.825-1.486-3.402-1.947v10.237C401.769,89.254,402.842,88.63,403.659,87.662z"/><path d="M337.756,119.012c4.725,4.952,11.91,9.141,20.666,12.293c0.064,0.023,0.124,0.047,0.188,0.069    c0.43,0.154,0.867,0.301,1.303,0.45c0.422,0.142,0.844,0.283,1.271,0.421c0.286,0.093,0.572,0.185,0.861,0.275    c1.662,0.519,3.372,1.006,5.131,1.454c0.032,0.009,0.066,0.017,0.098,0.025c2.795,0.71,5.703,1.331,8.707,1.851    c0.011,0.002,0.023,0.004,0.033,0.006c2.944,0.509,5.982,0.919,9.09,1.228c0.17,0.018,0.342,0.034,0.512,0.05    c0.921,0.088,1.848,0.167,2.779,0.236c0.082,0.006,0.164,0.014,0.246,0.02c0.998,0.072,2.004,0.133,3.014,0.183    c0.217,0.011,0.436,0.019,0.654,0.028c0.789,0.036,1.582,0.065,2.378,0.087c0.276,0.008,0.552,0.016,0.829,0.022    c1,0.022,2.002,0.037,3.01,0.037c1.009,0,2.011-0.015,3.01-0.037c0.277-0.006,0.554-0.015,0.83-0.022    c0.793-0.022,1.584-0.05,2.371-0.086c0.221-0.01,0.443-0.019,0.664-0.029c1.008-0.051,2.01-0.111,3.003-0.183    c0.092-0.006,0.183-0.015,0.272-0.021c0.922-0.07,1.837-0.147,2.746-0.234c0.18-0.018,0.359-0.035,0.539-0.052    c3.094-0.309,6.117-0.717,9.049-1.224c0.027-0.004,0.054-0.009,0.079-0.013c2.989-0.519,5.884-1.136,8.665-1.842    c0.045-0.011,0.09-0.022,0.135-0.034c1.754-0.447,3.459-0.934,5.115-1.451c0.288-0.089,0.572-0.182,0.857-0.273    c0.434-0.14,0.863-0.284,1.289-0.427c0.428-0.146,0.855-0.291,1.277-0.441c0.086-0.03,0.17-0.062,0.256-0.093    c8.732-3.151,15.902-7.332,20.621-12.273c0.156-0.163,0.334-0.298,0.51-0.435c3.225-3.565,5.027-7.443,5.027-11.477    c0-2.797-0.893-5.579-2.662-8.305c-6.142,5.032-14.304,9.174-23.799,12.218c-0.23,0.074-0.463,0.147-0.695,0.221    c-0.803,0.25-1.611,0.496-2.432,0.731c-0.388,0.112-0.781,0.218-1.173,0.326c-0.544,0.149-1.092,0.297-1.644,0.439    c-0.476,0.124-0.953,0.245-1.436,0.363c-0.471,0.115-0.947,0.225-1.424,0.335c-0.84,0.196-1.688,0.383-2.545,0.562    c-0.307,0.064-0.615,0.127-0.925,0.189c-1.185,0.239-2.384,0.462-3.599,0.67c-0.134,0.023-0.266,0.047-0.4,0.07    c-0.641,0.107-1.285,0.209-1.935,0.309c-0.315,0.047-0.632,0.093-0.948,0.139c-0.994,0.144-1.996,0.278-3.007,0.401    c-0.439,0.054-0.88,0.108-1.322,0.158c-0.553,0.062-1.106,0.123-1.664,0.178c-0.876,0.089-1.756,0.17-2.642,0.244    c-0.413,0.033-0.83,0.061-1.246,0.091c-0.754,0.055-1.51,0.104-2.268,0.148c-0.342,0.019-0.683,0.041-1.026,0.059    c-1.063,0.053-2.132,0.094-3.206,0.125c-0.279,0.008-0.559,0.015-0.838,0.021c-1.156,0.026-2.315,0.044-3.482,0.044    c-1.166,0-2.326-0.018-3.482-0.044c-0.279-0.006-0.559-0.013-0.837-0.021c-1.074-0.03-2.144-0.072-3.208-0.125    c-0.343-0.018-0.682-0.04-1.023-0.059c-0.762-0.044-1.52-0.093-2.275-0.148c-0.412-0.03-0.827-0.059-1.238-0.091    c-0.887-0.073-1.77-0.156-2.648-0.244c-0.555-0.056-1.105-0.116-1.655-0.177c-0.449-0.051-0.896-0.105-1.343-0.16    c-0.999-0.123-1.988-0.254-2.971-0.397c-0.327-0.047-0.654-0.094-0.979-0.144c-0.643-0.098-1.282-0.199-1.918-0.306    c-0.157-0.026-0.313-0.056-0.472-0.083c-1.189-0.205-2.364-0.424-3.525-0.657c-0.314-0.063-0.629-0.127-0.941-0.193    c-0.849-0.177-1.688-0.362-2.52-0.556c-0.482-0.111-0.964-0.222-1.441-0.339c-0.481-0.118-0.961-0.241-1.438-0.364    c-0.547-0.141-1.09-0.287-1.629-0.436c-0.404-0.111-0.81-0.221-1.209-0.336c-0.807-0.231-1.602-0.472-2.391-0.718    c-0.244-0.077-0.488-0.154-0.729-0.231c-9.487-3.044-17.642-7.186-23.778-12.215c-1.771,2.726-2.666,5.507-2.666,8.308    c0,4.02,1.791,7.886,4.996,11.441C337.395,118.687,337.587,118.835,337.756,119.012z"/><path d="M337.756,88.723c5.033,5.275,12.857,9.683,22.395,12.898c0.25,0.083,0.5,0.167,0.753,0.249    c0.426,0.14,0.853,0.277,1.284,0.412c0.71,0.22,1.424,0.438,2.152,0.645c0.037,0.011,0.072,0.022,0.109,0.033    c0.853,0.243,1.721,0.475,2.598,0.699c0.139,0.036,0.278,0.071,0.417,0.106c0.821,0.207,1.649,0.407,2.489,0.597    c0.06,0.014,0.118,0.029,0.178,0.042c1.879,0.424,3.805,0.809,5.771,1.151c0.072,0.012,0.145,0.023,0.215,0.037    c0.953,0.164,1.915,0.318,2.885,0.461c0.027,0.005,0.053,0.008,0.078,0.012c1.023,0.151,2.055,0.291,3.097,0.417    c0.002,0.001,0.003,0.001,0.007,0.001c0.952,0.116,1.916,0.221,2.883,0.316c0.195,0.02,0.391,0.039,0.585,0.057    c0.892,0.085,1.787,0.162,2.689,0.229c0.105,0.008,0.211,0.019,0.315,0.026c0.99,0.071,1.987,0.131,2.989,0.181    c0.226,0.012,0.451,0.02,0.677,0.03c0.783,0.036,1.572,0.064,2.362,0.086c0.277,0.007,0.554,0.016,0.832,0.022    c0.999,0.022,2.001,0.037,3.009,0.037s2.01-0.015,3.01-0.037c0.276-0.006,0.555-0.015,0.832-0.022    c0.79-0.022,1.576-0.05,2.359-0.086c0.227-0.01,0.453-0.019,0.68-0.03c1-0.05,1.997-0.11,2.985-0.181    c0.108-0.008,0.218-0.018,0.327-0.026c0.896-0.067,1.786-0.144,2.671-0.228c0.202-0.02,0.403-0.039,0.604-0.059    c0.955-0.095,1.904-0.198,2.846-0.313c0.014-0.001,0.028-0.003,0.043-0.005c1.033-0.126,2.06-0.265,3.076-0.415    c0.038-0.005,0.077-0.012,0.117-0.017c0.953-0.142,1.9-0.294,2.838-0.455c0.082-0.014,0.166-0.028,0.249-0.042    c1.958-0.341,3.875-0.724,5.746-1.146c0.069-0.016,0.138-0.032,0.207-0.048c0.829-0.188,1.647-0.386,2.458-0.591    c0.146-0.037,0.291-0.072,0.436-0.11c0.871-0.223,1.732-0.454,2.58-0.694c0.047-0.014,0.094-0.028,0.142-0.041    c0.722-0.207,1.431-0.422,2.136-0.64c0.426-0.133,0.847-0.269,1.266-0.407c0.263-0.085,0.522-0.172,0.783-0.259    c9.531-3.215,17.354-7.621,22.389-12.893c0.164-0.171,0.35-0.314,0.535-0.457c3.208-3.557,5.002-7.425,5.002-11.447    c0-16.614-30.369-30.649-66.316-30.649c-35.948,0-66.318,14.035-66.318,30.649c0,4.008,1.782,7.864,4.971,11.412    C337.38,88.381,337.578,88.538,337.756,88.723z M389.173,73.752c-1.593-1.979-2.385-4.369-2.385-7.188    c0-2.861,0.899-5.258,2.698-7.197c1.791-1.947,4.178-3.066,7.165-3.353v-2.57h3.804v2.57c2.791,0.33,5.004,1.274,6.653,2.835    c1.644,1.56,2.7,3.648,3.155,6.269l-6.646,0.855c-0.413-2.054-1.462-3.443-3.163-4.173v10.204c4.21,1.116,7.075,2.595,8.595,4.385    c1.526,1.799,2.284,4.116,2.284,6.935c0,3.155-0.957,5.8-2.871,7.959c-1.924,2.16-4.59,3.5-8.008,4.034v4.879h-3.804v-4.821    c-3.005-0.372-5.439-1.472-7.33-3.337c-1.883-1.874-3.079-4.51-3.607-7.912l6.812-0.803c0.271,1.395,0.799,2.586,1.566,3.598    c0.769,1.01,1.617,1.733,2.56,2.185V78.172C393.242,77.202,390.75,75.732,389.173,73.752z"/><path d="M262.899,134.728c0-1.159-0.347-2.169-1.04-3.007c-0.693-0.847-1.823-1.486-3.408-1.947v10.237    c1.313-0.278,2.385-0.904,3.211-1.875C262.486,137.175,262.899,136.042,262.899,134.728z"/><path d="M152.091,399.708c-8.589-19.982-39.012-71.155-51.711-83.297c-0.001-0.001-0.002-0.001-0.003-0.002    c-5.981-5.707-9.646-8.253-11.879-8.253c-0.41,0-1.099,0.069-2.331,0.676c-10.289,5.076-35.983,22.859-38.388,27.887    c-1.326,2.774-0.483,5.195,1.547,10.406c1.059,2.717,2.259,5.797,3.194,9.525c4.258,16.936,3.4,36.787,2.57,55.986    c-0.853,19.724-1.658,38.354,3.007,52c0.183,0.532,0.409,1.195,2.483,1.195c2.805,0,7.127-1.464,11.013-3.728    c5.198-3.031,15.165-7.781,26.705-13.282c12.082-5.759,25.776-12.287,36.876-18.217c17.119-9.146,19.503-12.406,19.807-12.968    c1.632-3.596,0.676-9.615-2.853-17.86C152.118,399.753,152.102,399.732,152.091,399.708z M105.516,415.611    c-5.563,0.624-10.581-3.36-11.208-8.897c-0.635-5.538,3.368-10.533,8.932-11.164c5.563-0.626,10.589,3.36,11.217,8.895    C115.083,409.983,111.087,414.978,105.516,415.611z"/><path d="M464.846,304.974c-0.873-11.913-18.327-16.235-29.846-16.235c-1.949,0-3.771,0.114-5.412,0.339    c-25.816,3.567-64.789,24.245-86.648,41.624c-1.219,2.382-2.77,4.208-4.27,5.558c-6.332,5.698-16.663,7.845-28.793,7.846    c-19.848,0-44.513-5.743-64.376-11.068c-1.31-0.351-2.428-0.651-3.325-0.884c-2.504-0.65-4.008-3.207-3.358-5.712    c0.65-2.505,3.211-4.008,5.712-3.358c0.917,0.238,2.059,0.545,3.397,0.903c8.68,2.326,26.743,7.168,44.297,9.474    c25.643,3.362,36-0.407,40.176-4.165c1.844-1.66,2.938-3.791,3.301-6.444c0.005-0.037,0.008-0.076,0.014-0.114    c0.059-0.463,0.093-0.945,0.108-1.44c0.002-0.071,0.007-0.141,0.009-0.213c0.009-0.503-0.009-1.024-0.045-1.56    c-0.009-0.128-0.02-0.258-0.031-0.387c-0.046-0.551-0.107-1.112-0.199-1.697c0-0.003-0.002-0.005-0.002-0.008    c-4.145-26.237-77.559-40.747-126.719-40.747c-9.396,0-17.143,0.549-22.404,1.587c-21.036,4.158-50.147,21.145-71.402,33.547    c-1.364,0.796-2.698,1.575-3.999,2.332c0.012,0.015,0.024,0.03,0.037,0.044c14.603,17.274,38.595,58.395,47.782,77.73    c18.313-6.714,34.497-9.982,49.36-9.982c17.405,0,31.292,4.448,44.722,8.75c14.074,4.508,28.627,9.168,48.129,9.168    c3.159,0,6.421-0.122,9.696-0.365c16.826-1.249,55.449-17.942,91.838-39.694C446.457,333.58,465.465,313.371,464.846,304.974z"/><path d="M256.519,248.795c35.948,0,66.317-14.035,66.317-30.647c0-2.802-0.893-5.583-2.66-8.307    c-6.146,5.036-14.316,9.182-23.82,12.226c-0.217,0.069-0.434,0.138-0.652,0.207c-0.834,0.261-1.678,0.517-2.531,0.761    c-0.346,0.099-0.695,0.192-1.043,0.288c-0.569,0.157-1.143,0.311-1.719,0.459c-0.465,0.12-0.93,0.239-1.398,0.354    c-0.523,0.128-1.053,0.251-1.583,0.373c-0.785,0.181-1.577,0.356-2.377,0.523c-0.323,0.068-0.648,0.134-0.974,0.2    c-1.137,0.228-2.286,0.442-3.449,0.642c-0.18,0.031-0.358,0.064-0.539,0.094c-0.631,0.106-1.267,0.206-1.905,0.304    c-0.33,0.05-0.661,0.098-0.993,0.146c-0.98,0.142-1.967,0.274-2.964,0.396c-0.446,0.055-0.893,0.109-1.341,0.16    c-0.551,0.062-1.102,0.122-1.655,0.178c-0.88,0.088-1.763,0.17-2.651,0.243c-0.408,0.033-0.822,0.062-1.234,0.091    c-0.756,0.056-1.514,0.105-2.275,0.149c-0.342,0.02-0.682,0.042-1.026,0.059c-1.063,0.053-2.132,0.094-3.206,0.125    c-0.278,0.008-0.557,0.015-0.837,0.021c-1.156,0.027-2.315,0.045-3.482,0.045s-2.327-0.018-3.483-0.045    c-0.278-0.006-0.558-0.013-0.835-0.021c-1.075-0.03-2.145-0.071-3.209-0.125c-0.341-0.017-0.679-0.039-1.019-0.059    c-0.766-0.044-1.528-0.093-2.289-0.149c-0.408-0.03-0.817-0.058-1.223-0.091c-0.894-0.073-1.782-0.155-2.667-0.245    c-0.544-0.054-1.085-0.113-1.625-0.174c-0.468-0.053-0.934-0.11-1.399-0.167c-0.968-0.119-1.927-0.247-2.879-0.385    c-0.354-0.051-0.707-0.102-1.059-0.156c-0.625-0.095-1.248-0.193-1.866-0.296c-0.247-0.042-0.492-0.087-0.738-0.13    c-1.084-0.188-2.158-0.388-3.219-0.601c-0.358-0.072-0.715-0.145-1.071-0.22c-0.676-0.142-1.349-0.288-2.014-0.438    c-0.647-0.147-1.29-0.297-1.927-0.454c-0.443-0.109-0.882-0.221-1.321-0.335c-0.626-0.161-1.247-0.328-1.864-0.499    c-0.272-0.075-0.547-0.146-0.816-0.223c-0.915-0.26-1.814-0.534-2.707-0.813c-0.187-0.059-0.374-0.118-0.56-0.178    c-9.522-3.045-17.708-7.196-23.862-12.24c-1.767,2.722-2.658,5.503-2.658,8.306C190.21,234.76,220.575,248.795,256.519,248.795z"/><path d="M195.748,199.771c5.012,5.252,12.791,9.643,22.27,12.854c0.343,0.115,0.687,0.23,1.034,0.343    c0.351,0.113,0.703,0.228,1.058,0.338c1.62,0.503,3.284,0.979,4.995,1.416c0.089,0.023,0.18,0.045,0.269,0.067    c0.877,0.223,1.763,0.437,2.661,0.641c0.017,0.004,0.033,0.007,0.049,0.011c1.902,0.431,3.854,0.82,5.846,1.166    c0.048,0.008,0.096,0.016,0.144,0.024c0.98,0.168,1.97,0.328,2.97,0.475c0.004,0.001,0.009,0.002,0.013,0.002    c1.972,0.291,3.982,0.536,6.022,0.739c0.184,0.018,0.368,0.036,0.552,0.054c0.902,0.085,1.809,0.164,2.723,0.231    c0.098,0.007,0.195,0.016,0.294,0.023c0.992,0.072,1.991,0.131,2.995,0.182c0.223,0.012,0.447,0.02,0.67,0.03    c0.786,0.036,1.575,0.064,2.367,0.086c0.277,0.008,0.554,0.015,0.83,0.021c0.999,0.022,2.001,0.037,3.01,0.037    c1.008,0,2.01-0.015,3.009-0.037c0.277-0.006,0.555-0.015,0.832-0.021c0.791-0.022,1.578-0.051,2.361-0.086    c0.226-0.01,0.453-0.018,0.678-0.03c1.002-0.051,1.998-0.11,2.987-0.182c0.107-0.008,0.214-0.017,0.321-0.025    c0.899-0.067,1.793-0.144,2.682-0.229c0.197-0.018,0.396-0.037,0.594-0.058c0.957-0.095,1.91-0.198,2.854-0.313    c0.013-0.001,0.024-0.002,0.037-0.004c1.036-0.126,2.063-0.266,3.079-0.415c0.037-0.005,0.073-0.011,0.109-0.017    c0.959-0.142,1.908-0.294,2.849-0.457c0.08-0.014,0.161-0.026,0.241-0.041c1.961-0.341,3.881-0.724,5.754-1.147    c0.066-0.016,0.131-0.03,0.195-0.045c0.836-0.19,1.662-0.39,2.479-0.596c0.139-0.035,0.277-0.068,0.415-0.104    c0.879-0.225,1.747-0.458,2.603-0.701c0.026-0.007,0.052-0.016,0.078-0.023c0.742-0.211,1.471-0.433,2.193-0.658    c0.417-0.129,0.829-0.263,1.239-0.396c0.273-0.089,0.545-0.179,0.815-0.271c9.525-3.214,17.344-7.617,22.375-12.888    c0.163-0.171,0.35-0.314,0.534-0.457c3.209-3.558,5.003-7.426,5.003-11.449c0-2.806-0.892-5.587-2.658-8.307    c-6.168,5.053-14.375,9.209-23.924,12.255c-0.146,0.047-0.291,0.092-0.438,0.139c-0.924,0.29-1.855,0.573-2.804,0.843    c-0.218,0.062-0.439,0.119-0.657,0.18c-0.677,0.187-1.358,0.37-2.047,0.546c-0.406,0.104-0.813,0.209-1.225,0.311    c-0.774,0.19-1.555,0.375-2.342,0.551c-0.522,0.118-1.053,0.228-1.582,0.339c-0.393,0.083-0.785,0.163-1.18,0.242    c-0.976,0.195-1.962,0.379-2.957,0.554c-0.324,0.057-0.646,0.115-0.973,0.17c-0.603,0.101-1.21,0.196-1.819,0.29    c-0.378,0.058-0.758,0.111-1.138,0.167c-0.922,0.132-1.851,0.257-2.787,0.373c-0.481,0.059-0.963,0.118-1.447,0.172    c-0.535,0.061-1.07,0.119-1.609,0.173c-0.889,0.09-1.781,0.173-2.678,0.246c-0.4,0.033-0.806,0.06-1.208,0.089    c-0.767,0.057-1.536,0.107-2.31,0.151c-0.334,0.02-0.668,0.041-1.004,0.058c-1.065,0.053-2.137,0.094-3.213,0.125    c-0.279,0.007-0.559,0.014-0.838,0.02c-1.156,0.027-2.315,0.045-3.481,0.045c-1.167,0-2.326-0.018-3.482-0.045    c-0.279-0.006-0.558-0.013-0.836-0.02c-1.077-0.031-2.149-0.072-3.216-0.126c-0.333-0.016-0.663-0.037-0.996-0.057    c-0.778-0.044-1.553-0.095-2.324-0.152c-0.398-0.028-0.797-0.055-1.193-0.088c-0.902-0.073-1.799-0.157-2.691-0.247    c-0.532-0.053-1.059-0.111-1.586-0.17c-0.502-0.057-1.001-0.117-1.5-0.179c-0.905-0.111-1.803-0.231-2.694-0.359    c-0.407-0.059-0.813-0.117-1.218-0.18c-0.594-0.09-1.186-0.184-1.773-0.282c-0.4-0.067-0.797-0.139-1.194-0.209    c-0.91-0.161-1.812-0.33-2.704-0.508c-0.429-0.086-0.856-0.173-1.282-0.263c-0.504-0.106-1.008-0.211-1.506-0.323    c-0.807-0.18-1.605-0.369-2.397-0.563c-0.385-0.095-0.766-0.193-1.147-0.291c-0.737-0.189-1.469-0.385-2.192-0.586    c-0.176-0.049-0.355-0.095-0.53-0.146c-0.974-0.276-1.93-0.566-2.878-0.865c-0.116-0.037-0.231-0.073-0.347-0.11    c-9.567-3.048-17.789-7.208-23.964-12.269c-1.765,2.72-2.656,5.501-2.656,8.306c0,4.022,1.793,7.89,5,11.447    C195.396,199.455,195.584,199.599,195.748,199.771z"/><path d="M195.748,169.489c4.705,4.931,11.851,9.103,20.555,12.252c0.112,0.04,0.221,0.082,0.333,0.122    c0.406,0.145,0.82,0.285,1.233,0.426c0.448,0.152,0.898,0.302,1.354,0.448c0.265,0.086,0.529,0.171,0.796,0.255    c1.674,0.522,3.397,1.013,5.17,1.465c0.019,0.005,0.038,0.009,0.057,0.015c2.803,0.713,5.722,1.335,8.736,1.857    c0.006,0.001,0.012,0.003,0.019,0.004c2.947,0.509,5.987,0.92,9.097,1.23c0.17,0.016,0.34,0.033,0.51,0.049    c0.922,0.088,1.85,0.167,2.784,0.237c0.081,0.005,0.161,0.013,0.242,0.02c0.998,0.072,2.002,0.131,3.013,0.183    c0.219,0.011,0.439,0.02,0.658,0.028c0.788,0.037,1.58,0.065,2.375,0.087c0.276,0.007,0.552,0.015,0.828,0.021    c1,0.022,2.002,0.037,3.011,0.037s2.011-0.015,3.009-0.037c0.278-0.006,0.555-0.015,0.832-0.021    c0.793-0.022,1.582-0.051,2.368-0.086c0.222-0.01,0.444-0.018,0.667-0.029c1.006-0.051,2.009-0.11,3.004-0.183    c0.089-0.007,0.178-0.015,0.268-0.021c0.922-0.068,1.839-0.147,2.75-0.234c0.18-0.017,0.358-0.035,0.538-0.052    c3.093-0.308,6.114-0.717,9.045-1.223c0.028-0.004,0.058-0.009,0.087-0.015c2.98-0.516,5.865-1.131,8.638-1.835    c0.058-0.015,0.116-0.029,0.175-0.044c1.739-0.444,3.43-0.926,5.075-1.438c0.313-0.098,0.623-0.199,0.933-0.299    c0.401-0.129,0.797-0.262,1.191-0.395c0.455-0.155,0.91-0.308,1.357-0.468c0.035-0.013,0.068-0.026,0.103-0.038    c8.787-3.156,16.001-7.354,20.741-12.319c0.16-0.167,0.343-0.307,0.523-0.447c3.215-3.56,5.014-7.432,5.014-11.458    c0-2.806-0.892-5.587-2.658-8.307c-6.182,5.065-14.412,9.228-23.991,12.277c-0.098,0.031-0.196,0.063-0.294,0.092    c-0.961,0.303-1.932,0.598-2.92,0.878c-0.154,0.044-0.313,0.085-0.468,0.129c-0.746,0.208-1.5,0.409-2.261,0.604    c-0.37,0.095-0.74,0.19-1.115,0.283c-0.799,0.196-1.604,0.387-2.418,0.569c-0.492,0.11-0.99,0.214-1.488,0.318    c-0.432,0.091-0.866,0.18-1.302,0.267c-0.876,0.175-1.762,0.341-2.654,0.499c-0.413,0.072-0.823,0.147-1.239,0.217    c-0.587,0.098-1.177,0.191-1.77,0.282c-0.406,0.063-0.814,0.121-1.223,0.18c-0.887,0.128-1.779,0.247-2.68,0.357    c-0.504,0.063-1.007,0.124-1.514,0.181c-0.525,0.059-1.053,0.116-1.582,0.17c-0.894,0.09-1.791,0.174-2.694,0.247    c-0.395,0.033-0.792,0.06-1.189,0.088c-0.773,0.057-1.55,0.108-2.329,0.152c-0.331,0.02-0.66,0.041-0.993,0.057    c-1.067,0.054-2.142,0.095-3.22,0.126c-0.276,0.007-0.553,0.014-0.83,0.02c-1.156,0.027-2.318,0.045-3.485,0.045    c-1.168,0-2.329-0.018-3.486-0.045c-0.276-0.006-0.553-0.013-0.828-0.02c-1.079-0.031-2.154-0.072-3.222-0.126    c-0.33-0.016-0.656-0.037-0.985-0.056c-0.785-0.045-1.566-0.096-2.345-0.153c-0.392-0.029-0.785-0.055-1.175-0.087    c-0.908-0.074-1.81-0.158-2.708-0.249c-0.522-0.053-1.041-0.11-1.559-0.167c-0.524-0.059-1.044-0.122-1.564-0.187    c-0.87-0.107-1.732-0.222-2.588-0.345c-0.435-0.062-0.871-0.125-1.303-0.191c-0.577-0.089-1.152-0.18-1.723-0.275    c-0.493-0.082-0.981-0.171-1.471-0.258c-0.804-0.145-1.602-0.294-2.392-0.451c-0.47-0.093-0.938-0.189-1.404-0.288    c-0.472-0.1-0.945-0.198-1.412-0.302c-0.833-0.187-1.657-0.381-2.475-0.583c-0.348-0.086-0.692-0.174-1.037-0.263    c-0.811-0.208-1.614-0.421-2.408-0.643c-0.113-0.032-0.228-0.062-0.34-0.093c-1.012-0.288-2.008-0.589-2.993-0.9    c-0.068-0.022-0.136-0.043-0.203-0.065c-9.596-3.049-17.842-7.218-24.031-12.29c-1.765,2.72-2.656,5.501-2.656,8.306    c0,4.025,1.796,7.896,5.01,11.456C195.402,169.18,195.586,169.319,195.748,169.489z"/><path d="M195.748,139.207c4.65,4.872,11.686,9.003,20.25,12.138c0.242,0.088,0.48,0.179,0.725,0.265    c0.338,0.121,0.683,0.237,1.025,0.354c0.532,0.181,1.067,0.361,1.611,0.535c0.197,0.063,0.392,0.126,0.59,0.188    c6.952,2.175,14.794,3.763,23.164,4.594c0.16,0.017,0.321,0.032,0.481,0.047c0.933,0.09,1.872,0.17,2.818,0.241    c0.072,0.004,0.143,0.011,0.215,0.017c1.001,0.073,2.009,0.133,3.022,0.184c0.215,0.011,0.432,0.019,0.648,0.028    c0.791,0.036,1.585,0.065,2.382,0.087c0.275,0.008,0.551,0.016,0.827,0.022c1,0.022,2.002,0.037,3.011,0.037    s2.011-0.015,3.009-0.037c0.277-0.006,0.555-0.014,0.831-0.022c0.795-0.021,1.587-0.051,2.376-0.087    c0.219-0.009,0.438-0.017,0.656-0.028c1.01-0.051,2.016-0.11,3.014-0.183c0.08-0.007,0.16-0.014,0.24-0.02    c0.935-0.069,1.863-0.149,2.785-0.237c0.17-0.017,0.34-0.033,0.51-0.05c3.113-0.31,6.156-0.721,9.106-1.231    c0.002-0.001,0.003-0.001,0.005-0.001c3.023-0.523,5.951-1.147,8.763-1.863c0.009-0.002,0.017-0.004,0.025-0.007    c1.785-0.455,3.519-0.949,5.204-1.475c0.244-0.076,0.485-0.155,0.727-0.232c0.488-0.157,0.969-0.317,1.448-0.479    c0.386-0.132,0.771-0.263,1.15-0.397c0.166-0.059,0.327-0.121,0.491-0.179c8.649-3.144,15.754-7.3,20.439-12.207    c0.154-0.162,0.33-0.294,0.505-0.431c3.228-3.567,5.032-7.449,5.032-11.484c0-16.608-30.369-30.64-66.317-30.64    c-35.943,0-66.309,14.032-66.309,30.64c0,4.035,1.803,7.914,5.029,11.48C195.414,138.91,195.592,139.044,195.748,139.207z     M247.167,124.236c-1.584-1.989-2.386-4.38-2.386-7.196c0-2.859,0.901-5.259,2.7-7.197c1.799-1.947,4.186-3.057,7.166-3.351    v-2.574h3.805v2.574c2.789,0.328,5.001,1.273,6.66,2.833c1.643,1.561,2.699,3.655,3.154,6.269l-6.653,0.855    c-0.405-2.056-1.461-3.443-3.161-4.173v10.202c4.209,1.127,7.082,2.597,8.601,4.387c1.526,1.808,2.286,4.116,2.286,6.935    c0,3.153-0.957,5.807-2.881,7.969c-1.923,2.16-4.58,3.492-8.006,4.034v4.871h-3.805v-4.821c-3.005-0.363-5.439-1.472-7.323-3.337    c-1.889-1.865-3.086-4.51-3.615-7.91l6.81-0.805c0.28,1.396,0.8,2.588,1.576,3.598c0.769,1.008,1.609,1.733,2.551,2.184v-10.925    C251.245,127.679,248.752,126.208,247.167,124.236z"/></g></g><g id="Layer_1"/></svg>