<?xml version="1.0" ?><svg data-name="Layer 1" id="Layer_1" viewBox="0 0 512 512" xmlns="http://www.w3.org/2000/svg"><title/><path d="M462.77,132.46C417.68,109,326.72,95,266.32,186.06a236.7,236.7,0,0,0-24.85-22.43C211.31,140,149.3,103.29,72.85,122.29c-21.08,5.22-31.63,13.41-32.25,25-2.35,43.57,170.19,110.26,214.29,126.58v117.4a5.76,5.76,0,0,0,11.51,0V269.86a5.76,5.76,0,0,0-3.78-5.4c-82.2-30.09-212.06-88.33-210.53-116.54.3-5.64,8.66-10.77,23.53-14.46,71.78-17.78,130.26,16.94,158.76,39.23,37.54,29.37,57.79,63.76,57.79,81.21V391.28a5.76,5.76,0,0,0,11.51,0V257.14l161.11-97.63a15.89,15.89,0,0,0-2-27Zm-4.31,17.45L302.53,244.37c-3.25-14.7-13.56-32.3-28.38-49.54,68.8-107.42,171.68-58.2,183.32-52.17a4.43,4.43,0,0,1,2.43,3.67A4.1,4.1,0,0,1,458.46,149.91Z"/></svg>