<?xml version="1.0" ?><svg viewBox="0 0 512 512" xmlns="http://www.w3.org/2000/svg"><g data-name="Capa 13" id="Capa_13"><path d="M124.31,362.62a6,6,0,0,1-4.4-1.91A165.31,165.31,0,0,1,75.56,247.83C75.56,156.37,150,82,241.43,82a6,6,0,0,1,6,6V256.75a6,6,0,0,1-2.11,4.57L128.2,361.19A6,6,0,0,1,124.31,362.62ZM235.43,94.08C153.36,97.24,87.56,165,87.56,247.83a153.3,153.3,0,0,0,37.31,100.43L235.43,254Z"/><path d="M270.57,430a166.46,166.46,0,0,1-121.52-53,6,6,0,0,1,.51-8.65l115-98.07v-166a6,6,0,0,1,6-6c91.46,0,165.87,74.41,165.87,165.87S362,430,270.57,430ZM162.2,373.38A154.4,154.4,0,0,0,270.57,418c84.84,0,153.87-69,153.87-153.87,0-82.83-65.8-150.59-147.87-153.75V273.09a6,6,0,0,1-2.11,4.57ZM270.57,273.09h0Z"/><path d="M371.09,394.48a6,6,0,0,1-4.52-2.06L266.05,277a6,6,0,0,1,4.52-10H430.44a6,6,0,0,1,0,12H283.76l91.86,105.45a6,6,0,0,1-4.53,9.94Z"/></g></svg>